solid cone-solidworks
   facet normal 7.157666e-02 -4.987175e-01 -8.638042e-01
      outer loop
         vertex 6.855679e+01 5.000000e+01 8.028783e-01
         vertex 6.380535e+01 0.000000e+00 2.927667e+01
         vertex 5.886751e+01 0.000000e+00 2.886751e+01
      endloop
   endfacet
   facet normal 7.157704e-02 -4.987175e-01 -8.638041e-01
      outer loop
         vertex 5.886751e+01 5.000000e+01 0.000000e+00
         vertex 6.855679e+01 5.000000e+01 8.028783e-01
         vertex 5.886751e+01 0.000000e+00 2.886751e+01
      endloop
   endfacet
   facet normal -7.157666e-02 -4.987176e-01 -8.638041e-01
      outer loop
         vertex 5.392968e+01 0.000000e+00 2.927667e+01
         vertex 5.886751e+01 5.000000e+01 0.000000e+00
         vertex 5.886751e+01 0.000000e+00 2.886751e+01
      endloop
   endfacet
   facet normal -0.000000e+00 -1.000000e+00 0.000000e+00
      outer loop
         vertex 6.380535e+01 0.000000e+00 2.927667e+01
         vertex 5.886751e+01 0.000000e+00 5.886751e+01
         vertex 5.886751e+01 0.000000e+00 2.886751e+01
      endloop
   endfacet
   facet normal 0.000000e+00 -1.000000e+00 -0.000000e+00
      outer loop
         vertex 5.886751e+01 0.000000e+00 5.886751e+01
         vertex 5.392968e+01 0.000000e+00 2.927667e+01
         vertex 5.886751e+01 0.000000e+00 2.886751e+01
      endloop
   endfacet
   facet normal -7.157704e-02 -4.987175e-01 -8.638041e-01
      outer loop
         vertex 4.917824e+01 5.000000e+01 8.028783e-01
         vertex 5.886751e+01 5.000000e+01 0.000000e+00
         vertex 5.392968e+01 0.000000e+00 2.927667e+01
      endloop
   endfacet
   facet normal -2.127782e-01 -4.987175e-01 -8.402418e-01
      outer loop
         vertex 4.912653e+01 0.000000e+00 3.049300e+01
         vertex 4.917824e+01 5.000000e+01 8.028783e-01
         vertex 5.392968e+01 0.000000e+00 2.927667e+01
      endloop
   endfacet
   facet normal 0.000000e+00 -1.000000e+00 0.000000e+00
      outer loop
         vertex 5.886751e+01 0.000000e+00 5.886751e+01
         vertex 4.912653e+01 0.000000e+00 3.049300e+01
         vertex 5.392968e+01 0.000000e+00 2.927667e+01
      endloop
   endfacet
   facet normal 2.127782e-01 -4.987175e-01 -8.402418e-01
      outer loop
         vertex 7.798176e+01 5.000000e+01 3.189605e+00
         vertex 6.860850e+01 0.000000e+00 3.049300e+01
         vertex 6.380535e+01 0.000000e+00 2.927667e+01
      endloop
   endfacet
   facet normal 2.127780e-01 -4.987175e-01 -8.402418e-01
      outer loop
         vertex 6.855679e+01 5.000000e+01 8.028783e-01
         vertex 7.798176e+01 5.000000e+01 3.189605e+00
         vertex 6.380535e+01 0.000000e+00 2.927667e+01
      endloop
   endfacet
   facet normal -0.000000e+00 -1.000000e+00 0.000000e+00
      outer loop
         vertex 6.860850e+01 0.000000e+00 3.049300e+01
         vertex 5.886751e+01 0.000000e+00 5.886751e+01
         vertex 6.380535e+01 0.000000e+00 2.927667e+01
      endloop
   endfacet
   facet normal -2.127780e-01 -4.987175e-01 -8.402418e-01
      outer loop
         vertex 3.975326e+01 5.000000e+01 3.189605e+00
         vertex 4.917824e+01 5.000000e+01 8.028783e-01
         vertex 4.912653e+01 0.000000e+00 3.049300e+01
      endloop
   endfacet
   facet normal -3.481754e-01 -4.987175e-01 -7.937598e-01
      outer loop
         vertex 4.458909e+01 0.000000e+00 3.248330e+01
         vertex 3.975326e+01 5.000000e+01 3.189605e+00
         vertex 4.912653e+01 0.000000e+00 3.049300e+01
      endloop
   endfacet
   facet normal 0.000000e+00 -1.000000e+00 0.000000e+00
      outer loop
         vertex 5.886751e+01 0.000000e+00 5.886751e+01
         vertex 4.458909e+01 0.000000e+00 3.248330e+01
         vertex 4.912653e+01 0.000000e+00 3.049300e+01
      endloop
   endfacet
   facet normal 3.481754e-01 -4.987176e-01 -7.937598e-01
      outer loop
         vertex 8.688535e+01 5.000000e+01 7.095080e+00
         vertex 7.314594e+01 0.000000e+00 3.248330e+01
         vertex 6.860850e+01 0.000000e+00 3.049300e+01
      endloop
   endfacet
   facet normal 3.481753e-01 -4.987175e-01 -7.937599e-01
      outer loop
         vertex 7.798176e+01 5.000000e+01 3.189605e+00
         vertex 8.688535e+01 5.000000e+01 7.095080e+00
         vertex 6.860850e+01 0.000000e+00 3.049300e+01
      endloop
   endfacet
   facet normal -0.000000e+00 -1.000000e+00 0.000000e+00
      outer loop
         vertex 7.314594e+01 0.000000e+00 3.248330e+01
         vertex 5.886751e+01 0.000000e+00 5.886751e+01
         vertex 6.860850e+01 0.000000e+00 3.049300e+01
      endloop
   endfacet
   facet normal -3.481753e-01 -4.987176e-01 -7.937599e-01
      outer loop
         vertex 3.084967e+01 5.000000e+01 7.095080e+00
         vertex 3.975326e+01 5.000000e+01 3.189605e+00
         vertex 4.458909e+01 0.000000e+00 3.248330e+01
      endloop
   endfacet
   facet normal -4.740752e-01 -4.987176e-01 -7.256263e-01
      outer loop
         vertex 4.044113e+01 0.000000e+00 3.519330e+01
         vertex 3.084967e+01 5.000000e+01 7.095080e+00
         vertex 4.458909e+01 0.000000e+00 3.248330e+01
      endloop
   endfacet
   facet normal 0.000000e+00 -1.000000e+00 0.000000e+00
      outer loop
         vertex 5.886751e+01 0.000000e+00 5.886751e+01
         vertex 4.044113e+01 0.000000e+00 3.519330e+01
         vertex 4.458909e+01 0.000000e+00 3.248330e+01
      endloop
   endfacet
   facet normal 4.740752e-01 -4.987175e-01 -7.256263e-01
      outer loop
         vertex 9.502469e+01 5.000000e+01 1.241278e+01
         vertex 7.729390e+01 0.000000e+00 3.519330e+01
         vertex 7.314594e+01 0.000000e+00 3.248330e+01
      endloop
   endfacet
   facet normal 4.740754e-01 -4.987176e-01 -7.256262e-01
      outer loop
         vertex 8.688535e+01 5.000000e+01 7.095080e+00
         vertex 9.502469e+01 5.000000e+01 1.241278e+01
         vertex 7.314594e+01 0.000000e+00 3.248330e+01
      endloop
   endfacet
   facet normal -0.000000e+00 -1.000000e+00 0.000000e+00
      outer loop
         vertex 7.729390e+01 0.000000e+00 3.519330e+01
         vertex 5.886751e+01 0.000000e+00 5.886751e+01
         vertex 7.314594e+01 0.000000e+00 3.248330e+01
      endloop
   endfacet
   facet normal -4.740754e-01 -4.987175e-01 -7.256262e-01
      outer loop
         vertex 2.271034e+01 5.000000e+01 1.241278e+01
         vertex 3.084967e+01 5.000000e+01 7.095080e+00
         vertex 4.044113e+01 0.000000e+00 3.519330e+01
      endloop
   endfacet
   facet normal -5.870438e-01 -4.987175e-01 -6.376993e-01
      outer loop
         vertex 3.679580e+01 0.000000e+00 3.854907e+01
         vertex 2.271034e+01 5.000000e+01 1.241278e+01
         vertex 4.044113e+01 0.000000e+00 3.519330e+01
      endloop
   endfacet
   facet normal 0.000000e+00 -1.000000e+00 0.000000e+00
      outer loop
         vertex 5.886751e+01 0.000000e+00 5.886751e+01
         vertex 3.679580e+01 0.000000e+00 3.854907e+01
         vertex 4.044113e+01 0.000000e+00 3.519330e+01
      endloop
   endfacet
   facet normal 5.870438e-01 -4.987175e-01 -6.376993e-01
      outer loop
         vertex 1.021778e+02 5.000000e+01 1.899763e+01
         vertex 8.093923e+01 0.000000e+00 3.854907e+01
         vertex 7.729390e+01 0.000000e+00 3.519330e+01
      endloop
   endfacet
   facet normal 5.870437e-01 -4.987175e-01 -6.376994e-01
      outer loop
         vertex 9.502469e+01 5.000000e+01 1.241278e+01
         vertex 1.021778e+02 5.000000e+01 1.899763e+01
         vertex 7.729390e+01 0.000000e+00 3.519330e+01
      endloop
   endfacet
   facet normal -0.000000e+00 -1.000000e+00 0.000000e+00
      outer loop
         vertex 8.093923e+01 0.000000e+00 3.854907e+01
         vertex 5.886751e+01 0.000000e+00 5.886751e+01
         vertex 7.729390e+01 0.000000e+00 3.519330e+01
      endloop
   endfacet
   facet normal -5.870437e-01 -4.987175e-01 -6.376994e-01
      outer loop
         vertex 1.555728e+01 5.000000e+01 1.899763e+01
         vertex 2.271034e+01 5.000000e+01 1.241278e+01
         vertex 3.679580e+01 0.000000e+00 3.854907e+01
      endloop
   endfacet
   facet normal -6.839990e-01 -4.987175e-01 -5.323779e-01
      outer loop
         vertex 3.375252e+01 0.000000e+00 4.245907e+01
         vertex 1.555728e+01 5.000000e+01 1.899763e+01
         vertex 3.679580e+01 0.000000e+00 3.854907e+01
      endloop
   endfacet
   facet normal 0.000000e+00 -1.000000e+00 0.000000e+00
      outer loop
         vertex 5.886751e+01 0.000000e+00 5.886751e+01
         vertex 3.375252e+01 0.000000e+00 4.245907e+01
         vertex 3.679580e+01 0.000000e+00 3.854907e+01
      endloop
   endfacet
   facet normal 6.839989e-01 -4.987175e-01 -5.323779e-01
      outer loop
         vertex 1.081494e+02 5.000000e+01 2.667003e+01
         vertex 8.398251e+01 0.000000e+00 4.245907e+01
         vertex 8.093923e+01 0.000000e+00 3.854907e+01
      endloop
   endfacet
   facet normal 6.839989e-01 -4.987175e-01 -5.323780e-01
      outer loop
         vertex 1.021778e+02 5.000000e+01 1.899763e+01
         vertex 1.081494e+02 5.000000e+01 2.667003e+01
         vertex 8.093923e+01 0.000000e+00 3.854907e+01
      endloop
   endfacet
   facet normal -0.000000e+00 -1.000000e+00 0.000000e+00
      outer loop
         vertex 8.398251e+01 0.000000e+00 4.245907e+01
         vertex 5.886751e+01 0.000000e+00 5.886751e+01
         vertex 8.093923e+01 0.000000e+00 3.854907e+01
      endloop
   endfacet
   facet normal -6.839989e-01 -4.987175e-01 -5.323780e-01
      outer loop
         vertex 9.585604e+00 5.000000e+01 2.667003e+01
         vertex 1.555728e+01 5.000000e+01 1.899763e+01
         vertex 3.375252e+01 0.000000e+00 4.245907e+01
      endloop
   endfacet
   facet normal -7.622967e-01 -4.987176e-01 -4.125343e-01
      outer loop
         vertex 3.139431e+01 0.000000e+00 4.681665e+01
         vertex 9.585604e+00 5.000000e+01 2.667003e+01
         vertex 3.375252e+01 0.000000e+00 4.245907e+01
      endloop
   endfacet
   facet normal 0.000000e+00 -1.000000e+00 0.000000e+00
      outer loop
         vertex 5.886751e+01 0.000000e+00 5.886751e+01
         vertex 3.139431e+01 0.000000e+00 4.681665e+01
         vertex 3.375252e+01 0.000000e+00 4.245907e+01
      endloop
   endfacet
   facet normal 7.622967e-01 -4.987175e-01 -4.125343e-01
      outer loop
         vertex 1.127768e+02 5.000000e+01 3.522070e+01
         vertex 8.634071e+01 0.000000e+00 4.681665e+01
         vertex 8.398251e+01 0.000000e+00 4.245907e+01
      endloop
   endfacet
   facet normal 7.622968e-01 -4.987175e-01 -4.125342e-01
      outer loop
         vertex 1.081494e+02 5.000000e+01 2.667003e+01
         vertex 1.127768e+02 5.000000e+01 3.522070e+01
         vertex 8.398251e+01 0.000000e+00 4.245907e+01
      endloop
   endfacet
   facet normal -0.000000e+00 -1.000000e+00 0.000000e+00
      outer loop
         vertex 8.634071e+01 0.000000e+00 4.681665e+01
         vertex 5.886751e+01 0.000000e+00 5.886751e+01
         vertex 8.398251e+01 0.000000e+00 4.245907e+01
      endloop
   endfacet
   facet normal -7.622968e-01 -4.987175e-01 -4.125342e-01
      outer loop
         vertex 4.958216e+00 5.000000e+01 3.522070e+01
         vertex 9.585604e+00 5.000000e+01 2.667003e+01
         vertex 3.139431e+01 0.000000e+00 4.681665e+01
      endloop
   endfacet
   facet normal -8.198009e-01 -4.987175e-01 -2.814379e-01
      outer loop
         vertex 2.978551e+01 0.000000e+00 5.150295e+01
         vertex 4.958216e+00 5.000000e+01 3.522070e+01
         vertex 3.139431e+01 0.000000e+00 4.681665e+01
      endloop
   endfacet
   facet normal 0.000000e+00 -1.000000e+00 0.000000e+00
      outer loop
         vertex 5.886751e+01 0.000000e+00 5.886751e+01
         vertex 2.978551e+01 0.000000e+00 5.150295e+01
         vertex 3.139431e+01 0.000000e+00 4.681665e+01
      endloop
   endfacet
   facet normal 8.198009e-01 -4.987175e-01 -2.814379e-01
      outer loop
         vertex 1.159337e+02 5.000000e+01 4.441639e+01
         vertex 8.794952e+01 0.000000e+00 5.150295e+01
         vertex 8.634071e+01 0.000000e+00 4.681665e+01
      endloop
   endfacet
   facet normal 8.198009e-01 -4.987175e-01 -2.814381e-01
      outer loop
         vertex 1.127768e+02 5.000000e+01 3.522070e+01
         vertex 1.159337e+02 5.000000e+01 4.441639e+01
         vertex 8.634071e+01 0.000000e+00 4.681665e+01
      endloop
   endfacet
   facet normal -0.000000e+00 -1.000000e+00 0.000000e+00
      outer loop
         vertex 8.794952e+01 0.000000e+00 5.150295e+01
         vertex 5.886751e+01 0.000000e+00 5.886751e+01
         vertex 8.634071e+01 0.000000e+00 4.681665e+01
      endloop
   endfacet
   facet normal -8.198008e-01 -4.987175e-01 -2.814381e-01
      outer loop
         vertex 1.801331e+00 5.000000e+01 4.441639e+01
         vertex 4.958216e+00 5.000000e+01 3.522070e+01
         vertex 2.978551e+01 0.000000e+00 5.150295e+01
      endloop
   endfacet
   facet normal -8.549430e-01 -4.987176e-01 -1.426649e-01
      outer loop
         vertex 2.896998e+01 0.000000e+00 5.639013e+01
         vertex 1.801331e+00 5.000000e+01 4.441639e+01
         vertex 2.978551e+01 0.000000e+00 5.150295e+01
      endloop
   endfacet
   facet normal 0.000000e+00 -1.000000e+00 0.000000e+00
      outer loop
         vertex 5.886751e+01 0.000000e+00 5.886751e+01
         vertex 2.896998e+01 0.000000e+00 5.639013e+01
         vertex 2.978551e+01 0.000000e+00 5.150295e+01
      endloop
   endfacet
   facet normal 8.549430e-01 -4.987176e-01 -1.426649e-01
      outer loop
         vertex 1.175340e+02 5.000000e+01 5.400627e+01
         vertex 8.876505e+01 0.000000e+00 5.639013e+01
         vertex 8.794952e+01 0.000000e+00 5.150295e+01
      endloop
   endfacet
   facet normal 8.549430e-01 -4.987176e-01 -1.426649e-01
      outer loop
         vertex 1.159337e+02 5.000000e+01 4.441639e+01
         vertex 1.175340e+02 5.000000e+01 5.400627e+01
         vertex 8.794952e+01 0.000000e+00 5.150295e+01
      endloop
   endfacet
   facet normal -0.000000e+00 -1.000000e+00 0.000000e+00
      outer loop
         vertex 8.876505e+01 0.000000e+00 5.639013e+01
         vertex 5.886751e+01 0.000000e+00 5.886751e+01
         vertex 8.794952e+01 0.000000e+00 5.150295e+01
      endloop
   endfacet
   facet normal -8.549430e-01 -4.987176e-01 -1.426649e-01
      outer loop
         vertex 2.010614e-01 5.000000e+01 5.400627e+01
         vertex 1.801331e+00 5.000000e+01 4.441639e+01
         vertex 2.896998e+01 0.000000e+00 5.639013e+01
      endloop
   endfacet
   facet normal -8.667646e-01 -4.987176e-01 -0.000000e+00
      outer loop
         vertex 2.896998e+01 0.000000e+00 6.134489e+01
         vertex 2.010614e-01 5.000000e+01 5.400627e+01
         vertex 2.896998e+01 0.000000e+00 5.639013e+01
      endloop
   endfacet
   facet normal -0.000000e+00 -1.000000e+00 0.000000e+00
      outer loop
         vertex 5.886751e+01 0.000000e+00 5.886751e+01
         vertex 2.896998e+01 0.000000e+00 6.134489e+01
         vertex 2.896998e+01 0.000000e+00 5.639013e+01
      endloop
   endfacet
   facet normal 8.667646e-01 -4.987176e-01 0.000000e+00
      outer loop
         vertex 1.175340e+02 5.000000e+01 6.372875e+01
         vertex 8.876505e+01 0.000000e+00 6.134489e+01
         vertex 8.876505e+01 0.000000e+00 5.639013e+01
      endloop
   endfacet
   facet normal 8.667646e-01 -4.987176e-01 0.000000e+00
      outer loop
         vertex 1.175340e+02 5.000000e+01 5.400627e+01
         vertex 1.175340e+02 5.000000e+01 6.372875e+01
         vertex 8.876505e+01 0.000000e+00 5.639013e+01
      endloop
   endfacet
   facet normal 0.000000e+00 -1.000000e+00 -0.000000e+00
      outer loop
         vertex 8.876505e+01 0.000000e+00 6.134489e+01
         vertex 5.886751e+01 0.000000e+00 5.886751e+01
         vertex 8.876505e+01 0.000000e+00 5.639013e+01
      endloop
   endfacet
   facet normal 0.000000e+00 -1.000000e+00 -0.000000e+00
      outer loop
         vertex 5.886751e+01 0.000000e+00 8.886751e+01
         vertex 5.392968e+01 0.000000e+00 8.845835e+01
         vertex 5.886751e+01 0.000000e+00 5.886751e+01
      endloop
   endfacet
   facet normal -0.000000e+00 -1.000000e+00 0.000000e+00
      outer loop
         vertex 6.380535e+01 0.000000e+00 8.845835e+01
         vertex 5.886751e+01 0.000000e+00 8.886751e+01
         vertex 5.886751e+01 0.000000e+00 5.886751e+01
      endloop
   endfacet
   facet normal -0.000000e+00 -1.000000e+00 0.000000e+00
      outer loop
         vertex 7.729390e+01 0.000000e+00 8.254173e+01
         vertex 7.314594e+01 0.000000e+00 8.525173e+01
         vertex 5.886751e+01 0.000000e+00 5.886751e+01
      endloop
   endfacet
   facet normal -0.000000e+00 -1.000000e+00 0.000000e+00
      outer loop
         vertex 7.314594e+01 0.000000e+00 8.525173e+01
         vertex 6.860850e+01 0.000000e+00 8.724203e+01
         vertex 5.886751e+01 0.000000e+00 5.886751e+01
      endloop
   endfacet
   facet normal -0.000000e+00 -1.000000e+00 0.000000e+00
      outer loop
         vertex 6.860850e+01 0.000000e+00 8.724203e+01
         vertex 6.380535e+01 0.000000e+00 8.845835e+01
         vertex 5.886751e+01 0.000000e+00 5.886751e+01
      endloop
   endfacet
   facet normal -0.000000e+00 -1.000000e+00 0.000000e+00
      outer loop
         vertex 8.634071e+01 0.000000e+00 7.091838e+01
         vertex 8.398251e+01 0.000000e+00 7.527596e+01
         vertex 5.886751e+01 0.000000e+00 5.886751e+01
      endloop
   endfacet
   facet normal -0.000000e+00 -1.000000e+00 0.000000e+00
      outer loop
         vertex 8.398251e+01 0.000000e+00 7.527596e+01
         vertex 8.093923e+01 0.000000e+00 7.918596e+01
         vertex 5.886751e+01 0.000000e+00 5.886751e+01
      endloop
   endfacet
   facet normal -0.000000e+00 -1.000000e+00 0.000000e+00
      outer loop
         vertex 8.093923e+01 0.000000e+00 7.918596e+01
         vertex 7.729390e+01 0.000000e+00 8.254173e+01
         vertex 5.886751e+01 0.000000e+00 5.886751e+01
      endloop
   endfacet
   facet normal -0.000000e+00 -1.000000e+00 0.000000e+00
      outer loop
         vertex 8.876505e+01 0.000000e+00 6.134489e+01
         vertex 8.794952e+01 0.000000e+00 6.623208e+01
         vertex 5.886751e+01 0.000000e+00 5.886751e+01
      endloop
   endfacet
   facet normal -0.000000e+00 -1.000000e+00 0.000000e+00
      outer loop
         vertex 8.794952e+01 0.000000e+00 6.623208e+01
         vertex 8.634071e+01 0.000000e+00 7.091838e+01
         vertex 5.886751e+01 0.000000e+00 5.886751e+01
      endloop
   endfacet
   facet normal 0.000000e+00 -1.000000e+00 -0.000000e+00
      outer loop
         vertex 3.139431e+01 0.000000e+00 7.091838e+01
         vertex 2.978551e+01 0.000000e+00 6.623208e+01
         vertex 5.886751e+01 0.000000e+00 5.886751e+01
      endloop
   endfacet
   facet normal 0.000000e+00 -1.000000e+00 -0.000000e+00
      outer loop
         vertex 2.978551e+01 0.000000e+00 6.623208e+01
         vertex 2.896998e+01 0.000000e+00 6.134489e+01
         vertex 5.886751e+01 0.000000e+00 5.886751e+01
      endloop
   endfacet
   facet normal 0.000000e+00 -1.000000e+00 -0.000000e+00
      outer loop
         vertex 4.044113e+01 0.000000e+00 8.254173e+01
         vertex 3.679580e+01 0.000000e+00 7.918596e+01
         vertex 5.886751e+01 0.000000e+00 5.886751e+01
      endloop
   endfacet
   facet normal 0.000000e+00 -1.000000e+00 -0.000000e+00
      outer loop
         vertex 3.679580e+01 0.000000e+00 7.918596e+01
         vertex 3.375252e+01 0.000000e+00 7.527596e+01
         vertex 5.886751e+01 0.000000e+00 5.886751e+01
      endloop
   endfacet
   facet normal 0.000000e+00 -1.000000e+00 -0.000000e+00
      outer loop
         vertex 3.375252e+01 0.000000e+00 7.527596e+01
         vertex 3.139431e+01 0.000000e+00 7.091838e+01
         vertex 5.886751e+01 0.000000e+00 5.886751e+01
      endloop
   endfacet
   facet normal 0.000000e+00 -1.000000e+00 -0.000000e+00
      outer loop
         vertex 5.392968e+01 0.000000e+00 8.845835e+01
         vertex 4.912653e+01 0.000000e+00 8.724203e+01
         vertex 5.886751e+01 0.000000e+00 5.886751e+01
      endloop
   endfacet
   facet normal 0.000000e+00 -1.000000e+00 -0.000000e+00
      outer loop
         vertex 4.912653e+01 0.000000e+00 8.724203e+01
         vertex 4.458909e+01 0.000000e+00 8.525173e+01
         vertex 5.886751e+01 0.000000e+00 5.886751e+01
      endloop
   endfacet
   facet normal 0.000000e+00 -1.000000e+00 -0.000000e+00
      outer loop
         vertex 4.458909e+01 0.000000e+00 8.525173e+01
         vertex 4.044113e+01 0.000000e+00 8.254173e+01
         vertex 5.886751e+01 0.000000e+00 5.886751e+01
      endloop
   endfacet
   facet normal -8.667646e-01 -4.987176e-01 -0.000000e+00
      outer loop
         vertex 2.010614e-01 5.000000e+01 6.372875e+01
         vertex 2.010614e-01 5.000000e+01 5.400627e+01
         vertex 2.896998e+01 0.000000e+00 6.134489e+01
      endloop
   endfacet
   facet normal -8.549430e-01 -4.987176e-01 1.426649e-01
      outer loop
         vertex 2.978551e+01 0.000000e+00 6.623208e+01
         vertex 2.010614e-01 5.000000e+01 6.372875e+01
         vertex 2.896998e+01 0.000000e+00 6.134489e+01
      endloop
   endfacet
   facet normal 8.549430e-01 -4.987176e-01 1.426649e-01
      outer loop
         vertex 1.159337e+02 5.000000e+01 7.331863e+01
         vertex 8.794952e+01 0.000000e+00 6.623208e+01
         vertex 8.876505e+01 0.000000e+00 6.134489e+01
      endloop
   endfacet
   facet normal 8.549430e-01 -4.987176e-01 1.426649e-01
      outer loop
         vertex 1.175340e+02 5.000000e+01 6.372875e+01
         vertex 1.159337e+02 5.000000e+01 7.331863e+01
         vertex 8.876505e+01 0.000000e+00 6.134489e+01
      endloop
   endfacet
   facet normal -8.549430e-01 -4.987176e-01 1.426649e-01
      outer loop
         vertex 1.801331e+00 5.000000e+01 7.331863e+01
         vertex 2.010614e-01 5.000000e+01 6.372875e+01
         vertex 2.978551e+01 0.000000e+00 6.623208e+01
      endloop
   endfacet
   facet normal -8.198009e-01 -4.987175e-01 2.814379e-01
      outer loop
         vertex 3.139431e+01 0.000000e+00 7.091838e+01
         vertex 1.801331e+00 5.000000e+01 7.331863e+01
         vertex 2.978551e+01 0.000000e+00 6.623208e+01
      endloop
   endfacet
   facet normal 8.198009e-01 -4.987175e-01 2.814379e-01
      outer loop
         vertex 1.127768e+02 5.000000e+01 8.251433e+01
         vertex 8.634071e+01 0.000000e+00 7.091838e+01
         vertex 8.794952e+01 0.000000e+00 6.623208e+01
      endloop
   endfacet
   facet normal 8.198008e-01 -4.987175e-01 2.814381e-01
      outer loop
         vertex 1.159337e+02 5.000000e+01 7.331863e+01
         vertex 1.127768e+02 5.000000e+01 8.251433e+01
         vertex 8.794952e+01 0.000000e+00 6.623208e+01
      endloop
   endfacet
   facet normal -8.198009e-01 -4.987175e-01 2.814381e-01
      outer loop
         vertex 4.958216e+00 5.000000e+01 8.251433e+01
         vertex 1.801331e+00 5.000000e+01 7.331863e+01
         vertex 3.139431e+01 0.000000e+00 7.091838e+01
      endloop
   endfacet
   facet normal -7.622967e-01 -4.987175e-01 4.125343e-01
      outer loop
         vertex 3.375252e+01 0.000000e+00 7.527596e+01
         vertex 4.958216e+00 5.000000e+01 8.251433e+01
         vertex 3.139431e+01 0.000000e+00 7.091838e+01
      endloop
   endfacet
   facet normal 7.622967e-01 -4.987176e-01 4.125343e-01
      outer loop
         vertex 1.081494e+02 5.000000e+01 9.106499e+01
         vertex 8.398251e+01 0.000000e+00 7.527596e+01
         vertex 8.634071e+01 0.000000e+00 7.091838e+01
      endloop
   endfacet
   facet normal 7.622968e-01 -4.987175e-01 4.125342e-01
      outer loop
         vertex 1.127768e+02 5.000000e+01 8.251433e+01
         vertex 1.081494e+02 5.000000e+01 9.106499e+01
         vertex 8.634071e+01 0.000000e+00 7.091838e+01
      endloop
   endfacet
   facet normal -7.622968e-01 -4.987175e-01 4.125342e-01
      outer loop
         vertex 9.585604e+00 5.000000e+01 9.106499e+01
         vertex 4.958216e+00 5.000000e+01 8.251433e+01
         vertex 3.375252e+01 0.000000e+00 7.527596e+01
      endloop
   endfacet
   facet normal -6.839989e-01 -4.987175e-01 5.323779e-01
      outer loop
         vertex 3.679580e+01 0.000000e+00 7.918596e+01
         vertex 9.585604e+00 5.000000e+01 9.106499e+01
         vertex 3.375252e+01 0.000000e+00 7.527596e+01
      endloop
   endfacet
   facet normal 6.839990e-01 -4.987175e-01 5.323779e-01
      outer loop
         vertex 1.021778e+02 5.000000e+01 9.873740e+01
         vertex 8.093923e+01 0.000000e+00 7.918596e+01
         vertex 8.398251e+01 0.000000e+00 7.527596e+01
      endloop
   endfacet
   facet normal 6.839989e-01 -4.987175e-01 5.323780e-01
      outer loop
         vertex 1.081494e+02 5.000000e+01 9.106499e+01
         vertex 1.021778e+02 5.000000e+01 9.873740e+01
         vertex 8.398251e+01 0.000000e+00 7.527596e+01
      endloop
   endfacet
   facet normal -6.839989e-01 -4.987175e-01 5.323780e-01
      outer loop
         vertex 1.555728e+01 5.000000e+01 9.873740e+01
         vertex 9.585604e+00 5.000000e+01 9.106499e+01
         vertex 3.679580e+01 0.000000e+00 7.918596e+01
      endloop
   endfacet
   facet normal -5.870438e-01 -4.987175e-01 6.376993e-01
      outer loop
         vertex 4.044113e+01 0.000000e+00 8.254173e+01
         vertex 1.555728e+01 5.000000e+01 9.873740e+01
         vertex 3.679580e+01 0.000000e+00 7.918596e+01
      endloop
   endfacet
   facet normal 5.870438e-01 -4.987175e-01 6.376993e-01
      outer loop
         vertex 9.502469e+01 5.000000e+01 1.053223e+02
         vertex 7.729390e+01 0.000000e+00 8.254173e+01
         vertex 8.093923e+01 0.000000e+00 7.918596e+01
      endloop
   endfacet
   facet normal 5.870437e-01 -4.987175e-01 6.376994e-01
      outer loop
         vertex 1.021778e+02 5.000000e+01 9.873740e+01
         vertex 9.502469e+01 5.000000e+01 1.053223e+02
         vertex 8.093923e+01 0.000000e+00 7.918596e+01
      endloop
   endfacet
   facet normal -5.870437e-01 -4.987175e-01 6.376994e-01
      outer loop
         vertex 2.271034e+01 5.000000e+01 1.053223e+02
         vertex 1.555728e+01 5.000000e+01 9.873740e+01
         vertex 4.044113e+01 0.000000e+00 8.254173e+01
      endloop
   endfacet
   facet normal -4.740752e-01 -4.987175e-01 7.256263e-01
      outer loop
         vertex 4.458909e+01 0.000000e+00 8.525173e+01
         vertex 2.271034e+01 5.000000e+01 1.053223e+02
         vertex 4.044113e+01 0.000000e+00 8.254173e+01
      endloop
   endfacet
   facet normal 4.740752e-01 -4.987176e-01 7.256263e-01
      outer loop
         vertex 8.688535e+01 5.000000e+01 1.106399e+02
         vertex 7.314594e+01 0.000000e+00 8.525173e+01
         vertex 7.729390e+01 0.000000e+00 8.254173e+01
      endloop
   endfacet
   facet normal 4.740754e-01 -4.987175e-01 7.256262e-01
      outer loop
         vertex 9.502469e+01 5.000000e+01 1.053223e+02
         vertex 8.688535e+01 5.000000e+01 1.106399e+02
         vertex 7.729390e+01 0.000000e+00 8.254173e+01
      endloop
   endfacet
   facet normal -4.740754e-01 -4.987176e-01 7.256262e-01
      outer loop
         vertex 3.084967e+01 5.000000e+01 1.106399e+02
         vertex 2.271034e+01 5.000000e+01 1.053223e+02
         vertex 4.458909e+01 0.000000e+00 8.525173e+01
      endloop
   endfacet
   facet normal -3.481754e-01 -4.987176e-01 7.937598e-01
      outer loop
         vertex 4.912653e+01 0.000000e+00 8.724203e+01
         vertex 3.084967e+01 5.000000e+01 1.106399e+02
         vertex 4.458909e+01 0.000000e+00 8.525173e+01
      endloop
   endfacet
   facet normal 3.481754e-01 -4.987175e-01 7.937598e-01
      outer loop
         vertex 7.798176e+01 5.000000e+01 1.145454e+02
         vertex 6.860850e+01 0.000000e+00 8.724203e+01
         vertex 7.314594e+01 0.000000e+00 8.525173e+01
      endloop
   endfacet
   facet normal 3.481753e-01 -4.987176e-01 7.937599e-01
      outer loop
         vertex 8.688535e+01 5.000000e+01 1.106399e+02
         vertex 7.798176e+01 5.000000e+01 1.145454e+02
         vertex 7.314594e+01 0.000000e+00 8.525173e+01
      endloop
   endfacet
   facet normal -3.481753e-01 -4.987175e-01 7.937599e-01
      outer loop
         vertex 3.975326e+01 5.000000e+01 1.145454e+02
         vertex 3.084967e+01 5.000000e+01 1.106399e+02
         vertex 4.912653e+01 0.000000e+00 8.724203e+01
      endloop
   endfacet
   facet normal -2.127782e-01 -4.987175e-01 8.402418e-01
      outer loop
         vertex 5.392968e+01 0.000000e+00 8.845835e+01
         vertex 3.975326e+01 5.000000e+01 1.145454e+02
         vertex 4.912653e+01 0.000000e+00 8.724203e+01
      endloop
   endfacet
   facet normal 2.127782e-01 -4.987175e-01 8.402418e-01
      outer loop
         vertex 6.855679e+01 5.000000e+01 1.169321e+02
         vertex 6.380535e+01 0.000000e+00 8.845835e+01
         vertex 6.860850e+01 0.000000e+00 8.724203e+01
      endloop
   endfacet
   facet normal 2.127780e-01 -4.987175e-01 8.402418e-01
      outer loop
         vertex 7.798176e+01 5.000000e+01 1.145454e+02
         vertex 6.855679e+01 5.000000e+01 1.169321e+02
         vertex 6.860850e+01 0.000000e+00 8.724203e+01
      endloop
   endfacet
   facet normal -2.127780e-01 -4.987175e-01 8.402418e-01
      outer loop
         vertex 4.917824e+01 5.000000e+01 1.169321e+02
         vertex 3.975326e+01 5.000000e+01 1.145454e+02
         vertex 5.392968e+01 0.000000e+00 8.845835e+01
      endloop
   endfacet
   facet normal -7.157666e-02 -4.987175e-01 8.638042e-01
      outer loop
         vertex 5.886751e+01 0.000000e+00 8.886751e+01
         vertex 4.917824e+01 5.000000e+01 1.169321e+02
         vertex 5.392968e+01 0.000000e+00 8.845835e+01
      endloop
   endfacet
   facet normal 7.157704e-02 -4.987175e-01 8.638041e-01
      outer loop
         vertex 6.855679e+01 5.000000e+01 1.169321e+02
         vertex 5.886751e+01 5.000000e+01 1.177350e+02
         vertex 6.380535e+01 0.000000e+00 8.845835e+01
      endloop
   endfacet
   facet normal 7.157666e-02 -4.987176e-01 8.638041e-01
      outer loop
         vertex 5.886751e+01 5.000000e+01 1.177350e+02
         vertex 5.886751e+01 0.000000e+00 8.886751e+01
         vertex 6.380535e+01 0.000000e+00 8.845835e+01
      endloop
   endfacet
   facet normal -7.157704e-02 -4.987175e-01 8.638041e-01
      outer loop
         vertex 5.886751e+01 5.000000e+01 1.177350e+02
         vertex 4.917824e+01 5.000000e+01 1.169321e+02
         vertex 5.886751e+01 0.000000e+00 8.886751e+01
      endloop
   endfacet
   facet normal -0.000000e+00 1.000000e+00 0.000000e+00
      outer loop
         vertex 4.917824e+01 5.000000e+01 8.028783e-01
         vertex 5.886751e+01 5.000000e+01 5.886751e+01
         vertex 5.886751e+01 5.000000e+01 0.000000e+00
      endloop
   endfacet
   facet normal 0.000000e+00 1.000000e+00 0.000000e+00
      outer loop
         vertex 5.886751e+01 5.000000e+01 5.886751e+01
         vertex 6.855679e+01 5.000000e+01 8.028783e-01
         vertex 5.886751e+01 5.000000e+01 0.000000e+00
      endloop
   endfacet
   facet normal -0.000000e+00 1.000000e+00 0.000000e+00
      outer loop
         vertex 3.975326e+01 5.000000e+01 3.189605e+00
         vertex 5.886751e+01 5.000000e+01 5.886751e+01
         vertex 4.917824e+01 5.000000e+01 8.028783e-01
      endloop
   endfacet
   facet normal 0.000000e+00 1.000000e+00 0.000000e+00
      outer loop
         vertex 5.886751e+01 5.000000e+01 5.886751e+01
         vertex 7.798176e+01 5.000000e+01 3.189605e+00
         vertex 6.855679e+01 5.000000e+01 8.028783e-01
      endloop
   endfacet
   facet normal -0.000000e+00 1.000000e+00 0.000000e+00
      outer loop
         vertex 3.084967e+01 5.000000e+01 7.095080e+00
         vertex 5.886751e+01 5.000000e+01 5.886751e+01
         vertex 3.975326e+01 5.000000e+01 3.189605e+00
      endloop
   endfacet
   facet normal 0.000000e+00 1.000000e+00 0.000000e+00
      outer loop
         vertex 5.886751e+01 5.000000e+01 5.886751e+01
         vertex 8.688535e+01 5.000000e+01 7.095080e+00
         vertex 7.798176e+01 5.000000e+01 3.189605e+00
      endloop
   endfacet
   facet normal -0.000000e+00 1.000000e+00 0.000000e+00
      outer loop
         vertex 2.271034e+01 5.000000e+01 1.241278e+01
         vertex 5.886751e+01 5.000000e+01 5.886751e+01
         vertex 3.084967e+01 5.000000e+01 7.095080e+00
      endloop
   endfacet
   facet normal 0.000000e+00 1.000000e+00 0.000000e+00
      outer loop
         vertex 5.886751e+01 5.000000e+01 5.886751e+01
         vertex 9.502469e+01 5.000000e+01 1.241278e+01
         vertex 8.688535e+01 5.000000e+01 7.095080e+00
      endloop
   endfacet
   facet normal -0.000000e+00 1.000000e+00 0.000000e+00
      outer loop
         vertex 1.555728e+01 5.000000e+01 1.899763e+01
         vertex 5.886751e+01 5.000000e+01 5.886751e+01
         vertex 2.271034e+01 5.000000e+01 1.241278e+01
      endloop
   endfacet
   facet normal 0.000000e+00 1.000000e+00 0.000000e+00
      outer loop
         vertex 5.886751e+01 5.000000e+01 5.886751e+01
         vertex 1.021778e+02 5.000000e+01 1.899763e+01
         vertex 9.502469e+01 5.000000e+01 1.241278e+01
      endloop
   endfacet
   facet normal -0.000000e+00 1.000000e+00 0.000000e+00
      outer loop
         vertex 9.585604e+00 5.000000e+01 2.667003e+01
         vertex 5.886751e+01 5.000000e+01 5.886751e+01
         vertex 1.555728e+01 5.000000e+01 1.899763e+01
      endloop
   endfacet
   facet normal 0.000000e+00 1.000000e+00 0.000000e+00
      outer loop
         vertex 5.886751e+01 5.000000e+01 5.886751e+01
         vertex 1.081494e+02 5.000000e+01 2.667003e+01
         vertex 1.021778e+02 5.000000e+01 1.899763e+01
      endloop
   endfacet
   facet normal -0.000000e+00 1.000000e+00 0.000000e+00
      outer loop
         vertex 4.958216e+00 5.000000e+01 3.522070e+01
         vertex 5.886751e+01 5.000000e+01 5.886751e+01
         vertex 9.585604e+00 5.000000e+01 2.667003e+01
      endloop
   endfacet
   facet normal 0.000000e+00 1.000000e+00 0.000000e+00
      outer loop
         vertex 5.886751e+01 5.000000e+01 5.886751e+01
         vertex 1.127768e+02 5.000000e+01 3.522070e+01
         vertex 1.081494e+02 5.000000e+01 2.667003e+01
      endloop
   endfacet
   facet normal -0.000000e+00 1.000000e+00 0.000000e+00
      outer loop
         vertex 1.801331e+00 5.000000e+01 4.441639e+01
         vertex 5.886751e+01 5.000000e+01 5.886751e+01
         vertex 4.958216e+00 5.000000e+01 3.522070e+01
      endloop
   endfacet
   facet normal 0.000000e+00 1.000000e+00 0.000000e+00
      outer loop
         vertex 5.886751e+01 5.000000e+01 5.886751e+01
         vertex 1.159337e+02 5.000000e+01 4.441639e+01
         vertex 1.127768e+02 5.000000e+01 3.522070e+01
      endloop
   endfacet
   facet normal -0.000000e+00 1.000000e+00 0.000000e+00
      outer loop
         vertex 2.010614e-01 5.000000e+01 5.400627e+01
         vertex 5.886751e+01 5.000000e+01 5.886751e+01
         vertex 1.801331e+00 5.000000e+01 4.441639e+01
      endloop
   endfacet
   facet normal 0.000000e+00 1.000000e+00 0.000000e+00
      outer loop
         vertex 5.886751e+01 5.000000e+01 5.886751e+01
         vertex 1.175340e+02 5.000000e+01 5.400627e+01
         vertex 1.159337e+02 5.000000e+01 4.441639e+01
      endloop
   endfacet
   facet normal 0.000000e+00 1.000000e+00 0.000000e+00
      outer loop
         vertex 2.010614e-01 5.000000e+01 6.372875e+01
         vertex 5.886751e+01 5.000000e+01 5.886751e+01
         vertex 2.010614e-01 5.000000e+01 5.400627e+01
      endloop
   endfacet
   facet normal -0.000000e+00 1.000000e+00 0.000000e+00
      outer loop
         vertex 5.886751e+01 5.000000e+01 5.886751e+01
         vertex 1.175340e+02 5.000000e+01 6.372875e+01
         vertex 1.175340e+02 5.000000e+01 5.400627e+01
      endloop
   endfacet
   facet normal 0.000000e+00 1.000000e+00 0.000000e+00
      outer loop
         vertex 5.886751e+01 5.000000e+01 1.177350e+02
         vertex 6.855679e+01 5.000000e+01 1.169321e+02
         vertex 5.886751e+01 5.000000e+01 5.886751e+01
      endloop
   endfacet
   facet normal -0.000000e+00 1.000000e+00 0.000000e+00
      outer loop
         vertex 4.917824e+01 5.000000e+01 1.169321e+02
         vertex 5.886751e+01 5.000000e+01 1.177350e+02
         vertex 5.886751e+01 5.000000e+01 5.886751e+01
      endloop
   endfacet
   facet normal -0.000000e+00 1.000000e+00 0.000000e+00
      outer loop
         vertex 2.271034e+01 5.000000e+01 1.053223e+02
         vertex 3.084967e+01 5.000000e+01 1.106399e+02
         vertex 5.886751e+01 5.000000e+01 5.886751e+01
      endloop
   endfacet
   facet normal -0.000000e+00 1.000000e+00 0.000000e+00
      outer loop
         vertex 3.084967e+01 5.000000e+01 1.106399e+02
         vertex 3.975326e+01 5.000000e+01 1.145454e+02
         vertex 5.886751e+01 5.000000e+01 5.886751e+01
      endloop
   endfacet
   facet normal -0.000000e+00 1.000000e+00 0.000000e+00
      outer loop
         vertex 3.975326e+01 5.000000e+01 1.145454e+02
         vertex 4.917824e+01 5.000000e+01 1.169321e+02
         vertex 5.886751e+01 5.000000e+01 5.886751e+01
      endloop
   endfacet
   facet normal -0.000000e+00 1.000000e+00 0.000000e+00
      outer loop
         vertex 4.958216e+00 5.000000e+01 8.251433e+01
         vertex 9.585604e+00 5.000000e+01 9.106499e+01
         vertex 5.886751e+01 5.000000e+01 5.886751e+01
      endloop
   endfacet
   facet normal -0.000000e+00 1.000000e+00 0.000000e+00
      outer loop
         vertex 9.585604e+00 5.000000e+01 9.106499e+01
         vertex 1.555728e+01 5.000000e+01 9.873740e+01
         vertex 5.886751e+01 5.000000e+01 5.886751e+01
      endloop
   endfacet
   facet normal -0.000000e+00 1.000000e+00 0.000000e+00
      outer loop
         vertex 1.555728e+01 5.000000e+01 9.873740e+01
         vertex 2.271034e+01 5.000000e+01 1.053223e+02
         vertex 5.886751e+01 5.000000e+01 5.886751e+01
      endloop
   endfacet
   facet normal -0.000000e+00 1.000000e+00 0.000000e+00
      outer loop
         vertex 2.010614e-01 5.000000e+01 6.372875e+01
         vertex 1.801331e+00 5.000000e+01 7.331863e+01
         vertex 5.886751e+01 5.000000e+01 5.886751e+01
      endloop
   endfacet
   facet normal -0.000000e+00 1.000000e+00 0.000000e+00
      outer loop
         vertex 1.801331e+00 5.000000e+01 7.331863e+01
         vertex 4.958216e+00 5.000000e+01 8.251433e+01
         vertex 5.886751e+01 5.000000e+01 5.886751e+01
      endloop
   endfacet
   facet normal 0.000000e+00 1.000000e+00 0.000000e+00
      outer loop
         vertex 1.127768e+02 5.000000e+01 8.251433e+01
         vertex 1.159337e+02 5.000000e+01 7.331863e+01
         vertex 5.886751e+01 5.000000e+01 5.886751e+01
      endloop
   endfacet
   facet normal 0.000000e+00 1.000000e+00 0.000000e+00
      outer loop
         vertex 1.159337e+02 5.000000e+01 7.331863e+01
         vertex 1.175340e+02 5.000000e+01 6.372875e+01
         vertex 5.886751e+01 5.000000e+01 5.886751e+01
      endloop
   endfacet
   facet normal 0.000000e+00 1.000000e+00 0.000000e+00
      outer loop
         vertex 9.502469e+01 5.000000e+01 1.053223e+02
         vertex 1.021778e+02 5.000000e+01 9.873740e+01
         vertex 5.886751e+01 5.000000e+01 5.886751e+01
      endloop
   endfacet
   facet normal 0.000000e+00 1.000000e+00 0.000000e+00
      outer loop
         vertex 1.021778e+02 5.000000e+01 9.873740e+01
         vertex 1.081494e+02 5.000000e+01 9.106499e+01
         vertex 5.886751e+01 5.000000e+01 5.886751e+01
      endloop
   endfacet
   facet normal 0.000000e+00 1.000000e+00 0.000000e+00
      outer loop
         vertex 1.081494e+02 5.000000e+01 9.106499e+01
         vertex 1.127768e+02 5.000000e+01 8.251433e+01
         vertex 5.886751e+01 5.000000e+01 5.886751e+01
      endloop
   endfacet
   facet normal 0.000000e+00 1.000000e+00 0.000000e+00
      outer loop
         vertex 6.855679e+01 5.000000e+01 1.169321e+02
         vertex 7.798176e+01 5.000000e+01 1.145454e+02
         vertex 5.886751e+01 5.000000e+01 5.886751e+01
      endloop
   endfacet
   facet normal 0.000000e+00 1.000000e+00 0.000000e+00
      outer loop
         vertex 7.798176e+01 5.000000e+01 1.145454e+02
         vertex 8.688535e+01 5.000000e+01 1.106399e+02
         vertex 5.886751e+01 5.000000e+01 5.886751e+01
      endloop
   endfacet
   facet normal 0.000000e+00 1.000000e+00 0.000000e+00
      outer loop
         vertex 8.688535e+01 5.000000e+01 1.106399e+02
         vertex 9.502469e+01 5.000000e+01 1.053223e+02
         vertex 5.886751e+01 5.000000e+01 5.886751e+01
      endloop
   endfacet
endsolid